<svg width="32" height="32" viewBox="0 0 32 32" fill="none" xmlns="http://www.w3.org/2000/svg">
<path d="M2.83684 16.9L6.42684 18.21V19.63L1.17684 17.61V16.18L6.42684 14.15V15.58L2.83684 16.9ZM22.0884 19.98L23.6884 12.14H24.8984L23.3084 19.98H22.0884ZM30.8216 17.61L25.5716 19.63V18.21L29.1616 16.9L25.5716 15.58V14.15L30.8216 16.18V17.61Z" fill="#66FCF1"/>
<path d="M12.4584 19.5L12.1684 18.53H9.7584L9.4684 19.5H7.2084L9.7184 12.62H12.2884L14.7984 19.5H12.4584ZM10.2184 16.99H11.7084L10.9884 14.54H10.9484L10.2184 16.99ZM18.5216 12.5C19.4016 12.5 20.1249 12.68 20.6916 13.04C21.2583 13.3933 21.5483 13.92 21.5616 14.62V14.74H19.4916V14.7C19.4916 14.5 19.4183 14.3333 19.2716 14.2C19.1249 14.0667 18.9016 14 18.6016 14C18.3083 14 18.0816 14.0433 17.9216 14.13C17.7683 14.2167 17.6916 14.3233 17.6916 14.45C17.6916 14.63 17.7983 14.7633 18.0116 14.85C18.2249 14.9367 18.5683 15.0267 19.0416 15.12C19.5949 15.2333 20.0483 15.3533 20.4016 15.48C20.7616 15.6 21.0749 15.8 21.3416 16.08C21.6083 16.36 21.7449 16.74 21.7516 17.22C21.7516 18.0333 21.4749 18.6367 20.9216 19.03C20.3749 19.4233 19.6416 19.62 18.7216 19.62C17.6483 19.62 16.8116 19.44 16.2116 19.08C15.6183 18.72 15.3216 18.0833 15.3216 17.17H17.4116C17.4116 17.5167 17.5016 17.75 17.6816 17.87C17.8616 17.9833 18.1416 18.04 18.5216 18.04C18.8016 18.04 19.0316 18.01 19.2116 17.95C19.3983 17.89 19.4916 17.7667 19.4916 17.58C19.4916 17.4133 19.3883 17.29 19.1816 17.21C18.9816 17.1233 18.6516 17.0333 18.1916 16.94C17.6316 16.82 17.1683 16.6967 16.8016 16.57C16.4349 16.4367 16.1149 16.22 15.8416 15.92C15.5683 15.62 15.4316 15.2133 15.4316 14.7C15.4316 13.9467 15.7216 13.3933 16.3016 13.04C16.8883 12.68 17.6283 12.5 18.5216 12.5Z" fill="white"/>
</svg>
