<svg width="29" height="29" viewBox="0 0 29 29" fill="none" xmlns="http://www.w3.org/2000/svg">
<path d="M14.6667 0.833252C12.8063 0.833252 10.9641 1.19968 9.24532 1.91163C7.52654 2.62357 5.96482 3.66708 4.64932 4.98257C1.99256 7.63934 0.5 11.2427 0.5 14.9999C0.5 21.2616 4.56583 26.5741 10.19 28.4583C10.8983 28.5716 11.125 28.1324 11.125 27.7499C11.125 27.4241 11.125 26.5316 11.125 25.3558C7.20083 26.2058 6.365 23.4574 6.365 23.4574C5.71333 21.8141 4.7925 21.3749 4.7925 21.3749C3.50333 20.4966 4.89167 20.5249 4.89167 20.5249C6.30833 20.6241 7.05917 21.9841 7.05917 21.9841C8.29167 24.1374 10.3742 23.4999 11.1817 23.1599C11.3092 22.2391 11.6775 21.6158 12.0742 21.2616C8.92917 20.9074 5.62833 19.6891 5.62833 14.2916C5.62833 12.7191 6.16667 11.4583 7.0875 10.4524C6.94583 10.0983 6.45 8.62492 7.22917 6.71242C7.22917 6.71242 8.41917 6.32992 11.125 8.15742C12.2442 7.84575 13.4625 7.68992 14.6667 7.68992C15.8708 7.68992 17.0892 7.84575 18.2083 8.15742C20.9142 6.32992 22.1042 6.71242 22.1042 6.71242C22.8833 8.62492 22.3875 10.0983 22.2458 10.4524C23.1667 11.4583 23.705 12.7191 23.705 14.2916C23.705 19.7033 20.39 20.8933 17.2308 21.2474C17.7408 21.6866 18.2083 22.5508 18.2083 23.8683C18.2083 25.7666 18.2083 27.2966 18.2083 27.7499C18.2083 28.1324 18.435 28.5858 19.1575 28.4583C24.7817 26.5599 28.8333 21.2616 28.8333 14.9999C28.8333 13.1395 28.4669 11.2973 27.755 9.57857C27.043 7.85979 25.9995 6.29807 24.684 4.98257C23.3685 3.66708 21.8068 2.62357 20.088 1.91163C18.3692 1.19968 16.5271 0.833252 14.6667 0.833252Z" fill="white"/>
</svg>
