<svg width="26" height="26" viewBox="0 0 26 26" fill="none" xmlns="http://www.w3.org/2000/svg">
<path d="M23.1667 0.25C23.9181 0.25 24.6388 0.548511 25.1701 1.07986C25.7015 1.61122 26 2.33189 26 3.08333V22.9167C26 23.6681 25.7015 24.3888 25.1701 24.9201C24.6388 25.4515 23.9181 25.75 23.1667 25.75H3.33333C2.58189 25.75 1.86122 25.4515 1.32986 24.9201C0.798511 24.3888 0.5 23.6681 0.5 22.9167V3.08333C0.5 2.33189 0.798511 1.61122 1.32986 1.07986C1.86122 0.548511 2.58189 0.25 3.33333 0.25H23.1667ZM22.4583 22.2083V14.7C22.4583 13.4751 21.9718 12.3004 21.1057 11.4343C20.2395 10.5682 19.0649 10.0817 17.84 10.0817C16.6358 10.0817 15.2333 10.8183 14.5533 11.9233V10.3508H10.6008V22.2083H14.5533V15.2242C14.5533 14.1333 15.4317 13.2408 16.5225 13.2408C17.0485 13.2408 17.553 13.4498 17.9249 13.8217C18.2969 14.1937 18.5058 14.6982 18.5058 15.2242V22.2083H22.4583ZM5.99667 8.12667C6.62788 8.12667 7.23324 7.87592 7.67958 7.42958C8.12592 6.98324 8.37667 6.37788 8.37667 5.74667C8.37667 4.42917 7.31417 3.3525 5.99667 3.3525C5.36169 3.3525 4.75273 3.60474 4.30374 4.05374C3.85474 4.50273 3.6025 5.11169 3.6025 5.74667C3.6025 7.06417 4.67917 8.12667 5.99667 8.12667ZM7.96583 22.2083V10.3508H4.04167V22.2083H7.96583Z" fill="white"/>
</svg>
